<svg width="343" height="99" viewBox="0 0 343 99" fill="none" xmlns="http://www.w3.org/2000/svg">
<g clip-path="url(#clip0_8_46)">
<path d="M90.2516 8.22858H8.74833C4.83416 8.22858 1.66113 11.4016 1.66113 15.3158V64.9266C1.66113 68.8407 4.83416 72.0138 8.74833 72.0138H58.3591V88.9979C58.3591 90.5763 60.2676 91.3671 61.3838 90.2509L79.6209 72.0138H90.2518C94.166 72.0138 97.339 68.8407 97.339 64.9266V15.3158C97.3388 11.4016 94.1658 8.22858 90.2516 8.22858Z" fill="#00C3FF"/>
<path d="M24.6947 47.2077C28.6089 47.2077 31.7819 44.0347 31.7819 40.1205C31.7819 36.2064 28.6089 33.0333 24.6947 33.0333C20.7806 33.0333 17.6075 36.2064 17.6075 40.1205C17.6075 44.0347 20.7806 47.2077 24.6947 47.2077Z" fill="white"/>
<path d="M49.5 47.2077C53.4142 47.2077 56.5872 44.0347 56.5872 40.1205C56.5872 36.2064 53.4142 33.0333 49.5 33.0333C45.5859 33.0333 42.4128 36.2064 42.4128 40.1205C42.4128 44.0347 45.5859 47.2077 49.5 47.2077Z" fill="white"/>
<path d="M74.3053 47.2077C78.2195 47.2077 81.3925 44.0347 81.3925 40.1205C81.3925 36.2064 78.2195 33.0333 74.3053 33.0333C70.3912 33.0333 67.2181 36.2064 67.2181 40.1205C67.2181 44.0347 70.3912 47.2077 74.3053 47.2077Z" fill="white"/>
<path d="M8.74833 64.9266V15.3158C8.74833 11.4016 11.9214 8.22858 15.8355 8.22858H8.74833C4.83416 8.22858 1.66113 11.4016 1.66113 15.3158V64.9266C1.66113 68.8407 4.83416 72.0138 8.74833 72.0138H15.8355C11.9214 72.0138 8.74833 68.8405 8.74833 64.9266Z" fill="#00AAF0"/>
<path d="M61.9026 72.0138H58.3589V88.9979C58.3589 90.5763 60.2673 91.3671 61.3836 90.2509L65.4461 86.1884V75.5575C65.4463 73.6001 63.8598 72.0138 61.9026 72.0138Z" fill="#00AAF0"/>
<path d="M55.9498 36.74C55.0613 36.9688 54.5266 37.8744 54.7554 38.7627C54.8687 39.2032 54.9263 39.6601 54.9263 40.1211C54.9263 43.1129 52.4921 45.5473 49.5001 45.5473C46.508 45.5473 44.0738 43.1131 44.0738 40.1211C44.0738 37.129 46.508 34.6948 49.5001 34.6948C49.9633 34.6948 50.4228 34.7529 50.8654 34.8675C51.7535 35.0976 52.6597 34.5641 52.8898 33.676C53.1199 32.7879 52.5865 31.8817 51.6984 31.6516C50.9837 31.4663 50.2441 31.3727 49.5001 31.3727C44.6763 31.3727 40.7517 35.2974 40.7517 40.1211C40.7517 44.9448 44.6763 48.8694 49.5001 48.8694C54.3238 48.8694 58.2484 44.9448 58.2484 40.1211C58.2484 39.3809 58.1556 38.6452 57.9725 37.9342C57.7435 37.0459 56.8379 36.5113 55.9498 36.74Z" fill="black"/>
<path d="M80.7549 36.74C79.8664 36.9688 79.3318 37.8744 79.5606 38.7627C79.6739 39.2032 79.7315 39.6601 79.7315 40.1211C79.7315 43.1129 77.2973 45.5473 74.3052 45.5473C71.3134 45.5473 68.879 43.1131 68.879 40.1211C68.879 37.129 71.3132 34.6948 74.3052 34.6948C74.7685 34.6948 75.2279 34.7529 75.6705 34.8675C76.5588 35.0976 77.4649 34.5641 77.695 33.676C77.9251 32.7879 77.3916 31.8817 76.5035 31.6516C75.7889 31.4663 75.0493 31.3727 74.3052 31.3727C69.4815 31.3727 65.5569 35.2974 65.5569 40.1211C65.5569 44.9448 69.4815 48.8694 74.3052 48.8694C79.129 48.8694 83.0536 44.9448 83.0536 40.1211C83.0536 39.3809 82.9608 38.6452 82.7777 37.9342C82.5489 37.0459 81.643 36.5113 80.7549 36.74Z" fill="black"/>
<path d="M31.1442 36.74C30.2557 36.9688 29.7211 37.8744 29.9498 38.7627C30.0631 39.2032 30.1208 39.6601 30.1208 40.1211C30.1208 43.1129 27.6866 45.5473 24.6945 45.5473C21.7025 45.5473 19.2683 43.1131 19.2683 40.1211C19.2683 37.129 21.7025 34.6948 24.6945 34.6948C25.1578 34.6948 25.6172 34.7529 26.0598 34.8675C26.9477 35.0976 27.8542 34.5641 28.0843 33.676C28.3144 32.7879 27.7809 31.8817 26.8928 31.6516C26.1782 31.4663 25.4386 31.3727 24.6945 31.3727C19.8708 31.3727 15.9462 35.2974 15.9462 40.1211C15.9462 44.9448 19.8708 48.8694 24.6945 48.8694C29.5183 48.8694 33.4429 44.9448 33.4429 40.1211C33.4429 39.3809 33.3501 38.6452 33.1669 37.9342C32.9382 37.0459 32.0321 36.5113 31.1442 36.74Z" fill="black"/>
<path d="M90.2517 6.56744H8.74835C3.92462 6.56744 0 10.4921 0 15.3158V64.9266C0 69.7505 3.92462 73.6749 8.74835 73.6749H56.698V88.9981C56.698 90.3916 57.5298 91.6365 58.817 92.1696C59.2442 92.3465 59.6914 92.4327 60.1344 92.4327C61.0258 92.4327 61.8999 92.0839 62.5581 91.4257L80.3085 73.6753H90.2515C95.0752 73.6753 98.9998 69.7509 98.9998 64.927V15.316C99 10.4921 95.0754 6.56744 90.2517 6.56744ZM95.6779 64.9266C95.6779 67.9184 93.2437 70.3528 90.2517 70.3528H79.6208C79.1803 70.3528 78.7576 70.5278 78.4463 70.8393L60.2092 89.0764C60.1814 89.1042 60.157 89.1286 60.0886 89.1004C60.0201 89.0723 60.0201 89.0377 60.0201 88.9981V72.014C60.0201 71.0967 59.2765 70.3528 58.359 70.3528H8.74835C5.7565 70.3528 3.32211 67.9186 3.32211 64.9266V15.3158C3.32211 12.3239 5.75631 9.88955 8.74835 9.88955H90.2517C93.2435 9.88955 95.6779 12.3238 95.6779 15.3158V64.9266Z" fill="black"/>
<path d="M141.968 31.4H150.896V66.68L128.384 47.912V65H119.456V29.72L141.968 48.488V31.4ZM168.984 65.48C166.264 65.48 163.912 65.016 161.928 64.088C159.976 63.128 158.472 61.8 157.416 60.104C156.36 58.376 155.832 56.328 155.832 53.96C155.832 51.56 156.344 49.512 157.368 47.816C158.392 46.088 159.864 44.76 161.784 43.832C163.704 42.904 166.008 42.44 168.696 42.44C171.384 42.44 173.64 42.872 175.464 43.736C177.288 44.6 178.68 45.864 179.64 47.528C180.6 49.16 181.08 51.176 181.08 53.576C181.08 53.96 181.064 54.344 181.032 54.728C181.032 55.08 181.016 55.4 180.984 55.688H160.392V51.416H173.4L171.624 53.624C171.784 53.368 171.928 53.08 172.056 52.76C172.184 52.44 172.248 52.168 172.248 51.944C172.248 51.048 172.088 50.296 171.768 49.688C171.48 49.048 171.048 48.568 170.472 48.248C169.928 47.896 169.272 47.72 168.504 47.72C167.544 47.72 166.744 47.944 166.104 48.392C165.464 48.84 164.984 49.528 164.664 50.456C164.344 51.352 164.184 52.504 164.184 53.912C164.152 55.16 164.312 56.216 164.664 57.08C165.016 57.944 165.528 58.616 166.2 59.096C166.872 59.544 167.704 59.768 168.696 59.768C169.912 59.768 170.936 59.56 171.768 59.144C172.632 58.696 173.304 58.056 173.784 57.224L181.272 58.712C180.088 60.984 178.472 62.68 176.424 63.8C174.408 64.92 171.928 65.48 168.984 65.48ZM199.472 42.92H208.64L199.904 53.672L209.12 65H199.952L195.728 59.144L191.552 65H182L191.36 53.672L182.48 42.92H192.032L195.728 48.152L199.472 42.92ZM209.381 42.92H225.269V49.64H209.381V42.92ZM213.365 35.24H221.285V65H213.365V35.24ZM237.26 48.2C237.26 50.088 237.676 51.704 238.508 53.048C239.372 54.36 240.508 55.368 241.916 56.072C243.324 56.744 244.876 57.08 246.572 57.08C248.172 57.08 249.564 56.872 250.748 56.456C251.932 56.04 252.988 55.512 253.916 54.872C254.844 54.2 255.66 53.496 256.364 52.76V62.552C255.052 63.512 253.596 64.312 251.996 64.952C250.428 65.56 248.412 65.864 245.948 65.864C243.164 65.864 240.604 65.448 238.268 64.616C235.932 63.784 233.932 62.584 232.268 61.016C230.604 59.448 229.308 57.592 228.38 55.448C227.484 53.272 227.036 50.856 227.036 48.2C227.036 45.544 227.484 43.144 228.38 41C229.308 38.824 230.604 36.952 232.268 35.384C233.932 33.816 235.932 32.616 238.268 31.784C240.604 30.952 243.164 30.536 245.948 30.536C248.412 30.536 250.428 30.84 251.996 31.448C253.596 32.056 255.052 32.856 256.364 33.848V43.64C255.66 42.904 254.844 42.216 253.916 41.576C252.988 40.904 251.932 40.36 250.748 39.944C249.564 39.528 248.172 39.32 246.572 39.32C244.876 39.32 243.324 39.672 241.916 40.376C240.508 41.048 239.372 42.056 238.508 43.4C237.676 44.712 237.26 46.312 237.26 48.2ZM270.288 27.56V65H261.984V27.56H270.288ZM276.336 51.56C276.336 50.408 276.144 49.528 275.76 48.92C275.376 48.28 274.64 47.96 273.552 47.96C272.912 47.96 272.336 48.104 271.824 48.392C271.344 48.648 270.96 49.048 270.672 49.592C270.416 50.104 270.288 50.76 270.288 51.56H269.04C269.04 49.8 269.312 48.2 269.856 46.76C270.4 45.32 271.248 44.168 272.4 43.304C273.584 42.44 275.136 42.008 277.056 42.008C278.976 42.008 280.48 42.328 281.568 42.968C282.656 43.608 283.44 44.552 283.92 45.8C284.4 47.016 284.64 48.52 284.64 50.312V65H276.336V51.56ZM296.689 58.088C296.689 58.568 296.801 58.984 297.025 59.336C297.281 59.656 297.617 59.912 298.033 60.104C298.449 60.264 298.897 60.344 299.377 60.344C300.081 60.344 300.753 60.2 301.393 59.912C302.033 59.592 302.545 59.112 302.929 58.472C303.345 57.8 303.553 56.968 303.553 55.976L304.321 58.856C304.321 60.264 303.953 61.464 303.217 62.456C302.513 63.448 301.537 64.2 300.289 64.712C299.073 65.224 297.729 65.48 296.257 65.48C294.849 65.48 293.537 65.224 292.321 64.712C291.137 64.168 290.177 63.384 289.441 62.36C288.705 61.304 288.337 60.024 288.337 58.52C288.337 56.408 289.073 54.744 290.545 53.528C292.049 52.312 294.209 51.704 297.025 51.704C298.241 51.704 299.377 51.816 300.433 52.04C301.521 52.264 302.465 52.568 303.265 52.952C304.097 53.304 304.721 53.704 305.137 54.152V57.656C304.497 57.112 303.697 56.696 302.737 56.408C301.777 56.12 300.769 55.976 299.713 55.976C298.977 55.976 298.385 56.056 297.937 56.216C297.489 56.376 297.169 56.616 296.977 56.936C296.785 57.224 296.689 57.608 296.689 58.088ZM292.657 50.168L290.017 44.744C291.425 44.136 293.041 43.576 294.865 43.064C296.721 42.52 298.689 42.248 300.769 42.248C302.785 42.248 304.593 42.536 306.193 43.112C307.825 43.656 309.105 44.472 310.033 45.56C310.993 46.648 311.473 47.976 311.473 49.544V65H303.553V51.512C303.553 51.032 303.473 50.6 303.313 50.216C303.185 49.832 302.961 49.512 302.641 49.256C302.321 48.968 301.905 48.76 301.393 48.632C300.881 48.472 300.289 48.392 299.617 48.392C298.689 48.392 297.729 48.504 296.737 48.728C295.777 48.952 294.929 49.208 294.193 49.496C293.457 49.784 292.945 50.008 292.657 50.168ZM314.193 42.92H330.081V49.64H314.193V42.92ZM318.177 35.24H326.097V65H318.177V35.24Z" fill="white"/>
</g>
<defs>
<clipPath id="clip0_8_46">
<rect width="343" height="99" fill="white"/>
</clipPath>
</defs>
</svg>
